<svg xmlns="http://www.w3.org/2000/svg" width="108.619" height="99.063"><defs><linearGradient id="prefix__linear-gradient" x1=".5" x2=".5" y1=".037" y2="1" gradientUnits="objectBoundingBox"><stop offset="0" stop-color="#4da1e8"/><stop offset="1" stop-color="#b9dffd"/></linearGradient><linearGradient id="prefix__linear-gradient-2" x1=".454" x2=".5" y1=".088" y2="1" gradientUnits="objectBoundingBox"><stop offset="0" stop-color="#fd7979"/><stop offset="1" stop-color="#9d1b1b"/></linearGradient><linearGradient id="prefix__linear-gradient-3" x1=".381" x2=".451" y1=".388" y2="1" gradientUnits="objectBoundingBox"><stop offset="0" stop-color="#ff7979"/><stop offset="1" stop-color="#fab0b0"/></linearGradient><linearGradient id="prefix__linear-gradient-4" x1=".734" x2=".106" y1=".297" y2="1" gradientUnits="objectBoundingBox"><stop offset="0" stop-color="#fdd17f"/><stop offset="1" stop-color="#e6ad42"/></linearGradient><style>.prefix__cls-2{fill:#ffe3b4;opacity:.996}.prefix__cls-11{fill:#ffeccc}.prefix__cls-4{fill:#58af32}.prefix__cls-7{fill:#448e24}</style></defs><g id="prefix__Расчет" transform="translate(-979.209 -2161.937)"><g id="prefix__Ellipse_105" fill="#fff" stroke="#e5e5e5" data-name="Ellipse 105" transform="translate(986 2165)"><circle cx="48" cy="48" r="48" stroke="none"/><circle cx="48" cy="48" r="47.5" fill="none"/></g><g id="prefix__Group_938" data-name="Group 938" transform="translate(-8033.438 -4686.543)"><path id="prefix__Path_2712" d="M8.572 0c4.643 0 7.463 4.925 7.463 11s-2.249 11.041-6.892 11.041c-4.295 0-7.385-7.023-8.074-11.713S3.928 0 8.572 0z" class="prefix__cls-2" data-name="Path 2712" transform="translate(9062.337 6877.543)"/><path id="prefix__Path_2702" d="M12.788 0s3.552 4.275 5.9 5.855c3 2.009 3.914 3.491 3.914 7.546 0 6.66-1.654 5.392-10.109 5.373s-9.245.168-9.245-6.492c0-4.475.307-3.295 3.937-5.38C8.545 6.112 12.788 0 12.788 0z" class="prefix__cls-2" data-name="Path 2702" transform="translate(9057.893 6895.29)"/><path id="prefix__Path_2709" d="M1.772 3.972S6.557 6.208 9.5 6.263s12.181-.51 16.789-4.343S0 1.174 0 1.174z" class="prefix__cls-2" data-name="Path 2709" transform="rotate(39 -5203.429 16268.448)"/><path id="prefix__Path_2710" fill="#ffeccc" d="M0 2.62S4.9.385 7.909.329 18.063-1.213 22.781 2.62 0 5.976 0 5.976z" data-name="Path 2710" opacity=".996" transform="rotate(141 3310.955 5059.608)"/><path id="prefix__Path_2711" d="M8689.367 6635.968c-.1-4.464-1.49-2.868 1.662-5.428s4 5.686 8.984 5.428 3.74-9.016 5.957-7.917 2.838-.212 4.172 7.614 1.164 23.692 1.164 23.692 1.943 7.019-11.076 7.51-11.92-6.681-11.92-6.681 1.161-19.753 1.057-24.218z" class="prefix__cls-4" data-name="Path 2711" transform="translate(371.234 272.674)"/><path id="prefix__Path_2708" fill="#d99546" d="M-5074.842 9526.838c3.283-.9 8.324.979 8.324.979a7.375 7.375 0 00-8.885-5.571c-7.387 1.31-5.472 10.78-5.472 10.78s2.75-5.288 6.033-6.188z" data-name="Path 2708" opacity=".996" transform="translate(14144.211 -2645.066)"/><path id="prefix__Path_2713" fill="#d99546" d="M9066 6882.8s-5.629 7.081-1.746 15.663-11.647 8.175-12.221 7.092c-1.107-2.09 5-19.367 7.5-25.062s4.941-8.144 6.049-6.054.418 8.361.418 8.361z" data-name="Path 2713" transform="translate(1 -3.115)"/><path id="prefix__Path_2722" d="M2.483.437a.868.868 0 011.507 0l3.2 5.6a.868.868 0 01-.754 1.3L.869 5.062a.868.868 0 01-.754-1.3z" class="prefix__cls-4" data-name="Path 2722" transform="rotate(41 -4668.214 15559.384)"/><path id="prefix__Path_2723" d="M4.251.437a.868.868 0 011.507 0L7.327 4.7A.868.868 0 016.573 6l-5.7.81a.868.868 0 01-.754-1.3z" class="prefix__cls-4" data-name="Path 2723" transform="rotate(-150 5457.06 2226.963)"/><path id="prefix__Path_2724" d="M3 .266C.32-.668.144 1.057.013 2.368s.794 1.67 1.505 1.278S5.681 1.2 3 .266z" class="prefix__cls-7" data-name="Path 2724" transform="rotate(165.02 4079.927 4038.392)"/><path id="prefix__Path_2728" d="M8689.038 6629.125l-4.924 10.462s5.088 2.216 15.631 2.283a42.008 42.008 0 0017.977-3.78l-5.641-9.982s-5.193 4.895-11.33 5.359-11.713-4.342-11.713-4.342z" class="prefix__cls-7" data-name="Path 2728" transform="translate(370.438 304.543)"/></g><g id="prefix__Group_920" data-name="Group 920" transform="translate(488.387 147.805)"><path id="prefix__Path_2597" fill="#70b5ee" d="M-1.482.834H13.76l14.555 1.587-1.537 11.607-1.2 25.339a59.077 59.077 0 01-10.908-7.574c-5.937-5.1-11.2-15.725-11.2-15.725z" data-name="Path 2597" transform="translate(498.783 2067.817)"/><path id="prefix__Path_2598" fill="#fdd17f" d="M-4210.179 8903.816c6.278-.109 8.881 2.043 12.232 7.455s3.312 22.318 3.312 22.318-3.788 10.648-12.813 10.262-18.263-4.112-18.263-4.112-.708 2.006-1.279-8.115 3.931-19.918 3.931-19.918 6.603-7.781 12.88-7.89z" data-name="Path 2598" transform="translate(4791.302 -6882.242)"/><path id="prefix__Path_2689" fill="url(#prefix__linear-gradient)" d="M1073.28-5230.214c-3.347-1.739-2.631-24.271-.979-30.669s16.186-10.891 22.55-11.093 18.622 2.792 20.773 8.643-.162 29.046-3.663 31.575c-2 1.442-11.508-1.229-19.315-3.792-7.96 3.31-16.019 7.074-19.366 5.336zm31.036-9.138l.2-1.312c-.575.255-1.282.568-2.1.927zm-23.606-17.086l1.1 16.2.366-.094 1.1-3.28 6.538 1.324 15.567-3.986 1.848-12.011s-13.125 3.151-14.844 0a1.929 1.929 0 01-.2-1.06z" data-name="Path 2689" transform="translate(-580.093 7329.14)"/><path id="prefix__Path_2600" d="M8.388 0C-1.812.025-.065 8.57.423 10.242s2.09 13.824 2.09 13.824l18.6-2.23-2.33-11.915S18.588-.025 8.388 0z" class="prefix__cls-11" data-name="Path 2600" transform="rotate(-173 324.4 1009.24)"/><path id="prefix__Path_2601" d="M-4307.372 8933.429c-4.9-.673-7.949-14.69-7.56-16.448s3.19-10.658 3.19-10.658l11.292-.477 3.786 11.946s-2.963 16.852-10.708 15.637z" class="prefix__cls-11" data-name="Path 2601" transform="translate(4883.252 -6880.538)"/><path id="prefix__Path_2605" fill="url(#prefix__linear-gradient-2)" d="M-4221.857 8979.8l4.6 11.418-.832 15.647-3.768 11.342a69.035 69.035 0 0012.244-8.314 38.428 38.428 0 007.646-9.74l.561-2.487 7.9-19.556z" data-name="Path 2605" transform="translate(4787.733 -6910.524)"/><path id="prefix__Path_2596" d="M-4313.383 8944.927l-2.587 9.988s-6.728 5.415 3.63 4.833 3.768-4.833 3.768-4.833l-2.208-10.5z" class="prefix__cls-11" data-name="Path 2596" transform="translate(4826.808 -6897.697)"/><path id="prefix__Path_2607" d="M-4327.378 9005.205s-4.887-3.038-7.755-2.577-3.717 3.523-3.717 4.425 5.084-.633 5.084-.633l5.847 1.494" class="prefix__cls-11" data-name="Path 2607" transform="translate(4830.351 -6919.841)"/><path id="prefix__Path_2608" d="M0 1.057L2.362 0l.283 3.779-2.1-.012" class="prefix__cls-11" data-name="Path 2608" transform="rotate(14 -8220.683 3170.818)"/><path id="prefix__Path_2610" fill="url(#prefix__linear-gradient-3)" d="M-4229.25 8970.818c3.357-4.249 26.057-6.283 29.939-3.863s7.911 19.576 4.843 25.406-24.152-.76-24.152-.76l3.629-2.576 15.087-.892V8975.8l-24.278 1.745 2.221 14.459 20.094-10.6v5.629s-21.069 16.036-24.579 13.739-6.16-25.705-2.804-29.954z" data-name="Path 2610" transform="translate(4792.022 -6904.883)"/><path id="prefix__Path_2611" d="M-4205.53 8975.826c4.708-1.115 6.045-15.6 6.045-15.6s-1.319-.121-2.335-3.05a57.454 57.454 0 01-1.73-8.665h-2.771l-2.669 13.874s-1.248 14.556 3.46 13.441z" class="prefix__cls-11" data-name="Path 2611" transform="translate(4782.826 -6899.26)"/><path id="prefix__Path_2612" d="M-4183.3 8993.622c1.7-1.293 9.709-1.936 9.388-.547s-4.369 1.626-6.073 2.918a4.266 4.266 0 01-3.314.918s-1.701-1.997-.001-3.289z" class="prefix__cls-11" data-name="Path 2612" transform="translate(4773.342 -6915.927)"/><path id="prefix__Path_2613" d="M-4210.008 9002.712l-6.209-.342.514 3.139h4.589l4.352-1.235z" class="prefix__cls-11" data-name="Path 2613" transform="translate(4785.587 -6919.763)"/><path id="prefix__Path_2690" fill="url(#prefix__linear-gradient-4)" d="M-4205.844 8907.65c0 3.318-5.155 7.742-12.562 11.52s-14.937 4.158-17.066 3.584 5.738-4.627 14.128-12.992 15.5-5.427 15.5-2.112z" data-name="Path 2690" transform="translate(4792.62 -6883.983)"/><path id="prefix__Path_2692" fill="gray" d="M2.968 13.554C2.418 11.849.857 5.608.857 5.608s-3.345 24.555 10.554 18.661 11.253-9.8 7.878-20.925l-2.174 8.972s-4.557-.706-7.7-.983-6.447 2.221-6.447 2.221z" data-name="Path 2692" transform="rotate(-173 324.601 1004.869)"/></g></g></svg>