<svg xmlns="http://www.w3.org/2000/svg" width="96" height="106.36"><defs><style>.prefix__cls-2{fill:#ffe3b4;opacity:.996}.prefix__cls-3{fill:#58af32}.prefix__cls-6{fill:#448e24}.prefix__cls-7{fill:#3d8020}</style></defs><g id="prefix__Период" transform="translate(-986 -2154.64)"><g id="prefix__Ellipse_105" fill="#fff" stroke="#e5e5e5" data-name="Ellipse 105" transform="translate(986 2165)"><circle cx="48" cy="48" r="48" stroke="none"/><circle cx="48" cy="48" r="47.5" fill="none"/></g><g id="prefix__Group_938" data-name="Group 938" transform="translate(-8039.982 -4715.948)"><path id="prefix__Path_2712" d="M9.913 0C15.377 0 18.7 5.8 18.7 12.945s-2.646 12.992-8.11 12.992c-5.054 0-8.69-8.264-9.5-13.784S4.449 0 9.913 0z" class="prefix__cls-2" data-name="Path 2712" transform="rotate(8 -44642.916 68273.903)"/><path id="prefix__Path_2702" d="M14.759 0c.487.009 1.626 4.33 5.268 6.46s5.583 3.371 5.583 8.14c0 7.837-1.249 7.512-11.2 7.49s-12.055.228-12.055-7.609c0-5.266 2.746-4.092 7.017-6.547 1.602-.926 4.9-7.943 5.387-7.934z" class="prefix__cls-2" data-name="Path 2702" transform="translate(9060.415 6899.656)"/><path id="prefix__Path_2711" d="M8688.865 6633.232c1.01-1.455 4.814-3.219 4.814-3.219s2.546 7.658 8.406 7.354 6.682-8.671 6.682-8.671a5.5 5.5 0 013.766 2.612c1.031 2.159 1.092 23.1 1.092 23.1l1.751 10.481s2.287 8.259-13.034 8.837-14.027-7.861-14.027-7.861l1.525-11.914s-1.985-19.264-.975-20.719z" class="prefix__cls-3" data-name="Path 2711" transform="translate(373.755 278.002)"/><path id="prefix__Path_2708" fill="#d99546" d="M-5073.736 9527.679a13.71 13.71 0 015.8.093 27.81 27.81 0 014.237 1.161s-2-8.2-10.7-6.658-6.187 12.983-6.187 12.983 2.986-6.52 6.85-7.579z" data-name="Path 2708" opacity=".996" transform="translate(14147.367 -2643.93)"/><path id="prefix__Path_2713" fill="#d99546" d="M9064.42 6888.867a21.064 21.064 0 001.852 14.15c3.768 6.878-13.511 9.5-14.215 8.172-1.3-2.459 5.889-22.79 8.831-29.493s5.814-9.584 7.118-7.124-3.586 14.295-3.586 14.295z" data-name="Path 2713" transform="translate(2.35 -3.116)"/><path id="prefix__Path_2721" d="M3.848 1.519a1 1 0 011.736 0l3.684 6.452a1 1 0 01-.868 1.5l-6.41-2.62a1 1 0 01-.868-1.5z" class="prefix__cls-3" data-name="Path 2721" transform="rotate(41 -4663.166 15562.37)"/><path id="prefix__Path_2720" d="M3.848 1.519a1 1 0 011.736 0L7.392 6.43a1 1 0 01-.868 1.5l-6.571.933a1 1 0 01-.868-1.5z" class="prefix__cls-3" data-name="Path 2720" transform="rotate(-150 5458.493 2226.545)"/><path id="prefix__Path_2715" d="M3.736.071C.648-1.006.445.982.294 2.492s.915 1.923 1.735 1.472S6.824 1.147 3.736.071z" class="prefix__cls-6" data-name="Path 2715" transform="rotate(165.02 4082.055 4038.204)"/><path id="prefix__Path_2717" d="M8689.909 6629.306L8679.5 6654.4s8.68 6.32 23.109 6.192 25.578-8.183 25.578-8.183l-11.162-24.3s-6.111 5.76-13.333 6.307-13.783-5.11-13.783-5.11z" class="prefix__cls-6" data-name="Path 2717" transform="translate(372.08 315.515)"/><path id="prefix__Path_2719" d="M-1.9-.759c1.17-2.1 18.921-2.623 19.973-1.182.692.948-1.226 8.2-2.715 13.392a171.85 171.85 0 01-1.214 4.06l-11.811.726S-3.074 1.339-1.9-.759z" data-name="Path 2719" transform="translate(9067.726 6924.596)"/><path id="prefix__Path_2710" d="M9.051 6.636s5.466-.876 6.282-2 2.575-4.927.75-11.438c-.161-.575-1.263.152-1.6-.786s1.084-.5 1.137-2.288c.07-2.448-2.245-4.259-1.07-4.5s2.22.26 3.238 3.665c2.261 7.56 3.3 15.13 1.718 17.734S4.667 12.739 4.667 12.739z" class="prefix__cls-2" data-name="Path 2710" transform="rotate(141 3312.224 5065.926)"/><path id="prefix__Path_2718" d="M4.514 9.171s5.944 1.383 6.575 2.326a8.528 8.528 0 011.836 8.739c-.141.462-1.883-.35-2.177.4s.953 1.177 1 2.612c.061 1.967-2.817 4.521-1.994 5.025s3.329-1.571 4.144-3.634c2.276-5.752 2.679-12.763 1.366-15.411S-1.945 1.873-1.945 1.873z" class="prefix__cls-2" data-name="Path 2718" transform="rotate(39 -5211.734 16287.972)"/><path id="prefix__Path_2725" d="M8687.643 7070.63l3.741-16.031.986.477z" class="prefix__cls-7" data-name="Path 2725" transform="rotate(180 8877.497 7014.59)"/><path id="prefix__Path_2726" d="M8687.643 7070.63l3.741-16.031.986.477z" class="prefix__cls-7" data-name="Path 2726" transform="rotate(160 8891.877 7049.207)"/><path id="prefix__Path_2727" d="M8687.643 7070.63l3.741-16.031.986.477z" class="prefix__cls-7" data-name="Path 2727" transform="rotate(131 8912.34 7104.73)"/></g></g></svg>