<svg xmlns="http://www.w3.org/2000/svg" width="96" height="107.607"><defs><linearGradient id="linear-gradient" x1=".5" y1=".037" x2=".5" y2="1" gradientUnits="objectBoundingBox"><stop offset="0" stop-color="#4da1e8"/><stop offset="1" stop-color="#b9dffd"/></linearGradient></defs><g id="Платежи" transform="translate(0 -1.293)"><circle id="Эллипс_115" data-name="Эллипс 115" cx="48" cy="48" r="48" transform="translate(0 12.9)" fill="#fff"/><circle id="Эллипс_116" data-name="Эллипс 116" cx="47.5" cy="47.5" r="47.5" transform="translate(.5 13.4)" fill="none" stroke="#e5e5e5" stroke-width="1"/><path id="Контур_2629" d="M33.9 95.6L58.3 97v9.9a57.422 57.422 0 01-10.9 1 55.2 55.2 0 01-13.4-2.2V95.6z" fill="#707070"/><path id="Контур_2625-2" d="M32.1 60.5l14.4-7 17.7 1.9-5.5 41.8-25.3-.7z" fill="#70b5ee"/><path id="Контур_2638-2" d="M55.1 59l7.6 5-11.2 9.7-6.9 14.2-6.8-5.9 11.4-12.1z" fill="#48892c"/><path id="Контур_2639-2" d="M57 60.5l6.1 5.5-10.9 8.9-8 13.7-6.4-6.4L50.2 71z" fill="#569d37"/><path id="Контур_2637-2" d="M53.1 59.7l7.5 5.3L49 74.4l-7.4 14.1-6.7-6.1 11.8-11.9z" fill="#58af32"/><path id="Контур_2636" d="M59.6 80s-7.3.4-10.5-2.2-1.1-6.8-.4-8c.6-1.1 4.8 4.2 4.8 4.2l6.7 2.8" fill="#ffeccc" opacity=".996"/><path id="Контур_2640-2" d="M35.9 68s9.4-6.4 12-5.4-1.5 9.4-1.5 9.4l-5.8 12.9-6.1-5.2 9.7-9.6z" fill="#70c64b"/><path id="Контур_2628" d="M29 77.4s4.5-7.2 8.7-8.5 7.3 2.3 7.8 3.5c.6 1.2-7.2 2.5-7.2 2.5l-6.8 5.8" fill="#ffeccc" opacity=".996"/><path id="Контур_2687" d="M56.5 80.6L55.3 74s6.4 2.2 7.8 0 0-17.6 0-17.6-11.3-.3-16.4-2.4L32 60.8s-3.2 9.5-3 11.2 3 .9 3 .9l1 7.8s-13.8 5.2-14.2-1.1 5.1-24 7.9-30.9 13.6-9 22.9-8.8S70 41.2 71.4 50.3s2 25.6 0 29.1-14.9 1.2-14.9 1.2z" fill="url(#linear-gradient)"/><path id="Контур_2729" data-name="Контур 2729" d="M54.5 41.2l-1.7-7.7c6.6-2.9 6.2-11.9 6.2-11.9L58 15l-10-4.5-7.2 3s-1.6 8.1-1.7 9.6c-.2 1.3 1.5 9.5 7.5 11.1L44 40.7s-9.1 4.6 5.2 4.1 5.3-3.6 5.3-3.6z" fill="#ffeccc" opacity=".996"/><path id="Контур_2693" d="M40.9 14c-.4 1.9-1.5 11.5-1.5 11.5S33.9-3.2 48.3 1.9s13 8.9 10.7 21l-3.9-8.8s-4.5 1.2-7.6 1.7c-3.1.6-6.6-1.8-6.6-1.8z" fill="gray"/></g></svg>